<?xml version="1.0" encoding="iso-8859-1"?>
<!-- Generator: Adobe Illustrator 19.0.0, SVG Export Plug-In . SVG Version: 6.00 Build 0)  -->
<svg version="1.1" id="Capa_1" xmlns="http://www.w3.org/2000/svg" xmlns:xlink="http://www.w3.org/1999/xlink" x="0px" y="0px"
	 viewBox="0 0 511.999 511.999" style="enable-background:new 0 0 511.999 511.999;" xml:space="preserve">
<path style="fill:#DFE3E5;" d="M489.673,226.006H227.708v-90.839h261.965c8.189,0,14.827,6.638,14.827,14.827v61.185
	C504.5,219.368,497.862,226.006,489.673,226.006z"/>
<path style="opacity:0.05;enable-background:new    ;" d="M227.708,226.006h150.865c-46.963-17.807-67.874-71.161-72.483-90.839
	h-78.382V226.006z"/>
<path style="fill:#DFE3E5;" d="M145.564,293.322H30.363l8.995-50.668c5.307-29.893,22.279-56.449,47.179-73.821l45.044-31.425
	l79.242,47.279l-49.312,59.175c-9.062,10.874-14.414,24.358-15.276,38.486L145.564,293.322z"/>
<path style="fill:#A28577;" d="M113.697,407.811H43.418c-19.837,0-35.918-16.081-35.918-35.918v-18.662
	c0-19.681,2.439-39.287,7.262-58.369l7.304-28.895c3.952-15.636,18.019-26.589,34.146-26.589h93.449
	c10.972,0,18.994,10.353,16.256,20.977l-11.398,44.214c-3.256,12.633-4.904,25.626-4.904,38.671v28.652
	C149.615,391.73,133.534,407.811,113.697,407.811z"/>
<path style="fill:#DDAF89;" d="M48.84,376.749c-5.676,0-10.278-4.601-10.278-10.277v-12.566c0-17.565,2.177-35.062,6.482-52.091
	l5.451-21.562c1.459-5.77,6.65-9.812,12.601-9.812h53.525c7.403,0,12.816,6.986,10.968,14.154l-3.148,12.211
	c-3.91,15.169-5.889,30.771-5.889,46.435v19.811c0,7.564-6.132,13.696-13.696,13.696H48.84V376.749z"/>
<path style="fill:#BEBFC0;" d="M269.961,120.969H164.818c-34.083,0-61.713,27.63-61.713,61.713v23.444
	c0,34.083,27.63,61.713,61.713,61.713h105.143c11.704,0,21.193-9.488,21.193-21.192V142.161
	C291.153,130.457,281.665,120.969,269.961,120.969z"/>
<path style="opacity:0.1;enable-background:new    ;" d="M185.739,226.014h65.047c5.237,0,9.483-4.246,9.483-9.483v-38.509
	c0-5.237-4.246-9.483-9.483-9.483h-86.558c-5.237,0-9.483,4.246-9.483,9.483v3.804c-7.946-21.006-8.526-42.121-5.933-58.748
	c-26.321,7.051-45.707,31.059-45.707,59.604v23.443c0,34.083,27.63,61.713,61.713,61.713h105.143c3.556,0,6.905-0.88,9.848-2.428
	C236.14,258.3,206.054,243.782,185.739,226.014z"/>
<path style="fill:#BEBFC0;" d="M472.799,104.397l-16.089,3.391c-17.046,3.592-32.172,13.34-42.486,27.379l0,0h70.182v-21.354
	C484.406,107.7,478.78,103.136,472.799,104.397z"/>
<path style="fill:#DFE3E5;" d="M250.786,215.365h-86.558c-5.237,0-9.483-4.246-9.483-9.483v-38.509c0-5.237,4.246-9.483,9.483-9.483
	h86.558c5.237,0,9.483,4.246,9.483,9.483v38.509C260.268,211.119,256.023,215.365,250.786,215.365z"/>
<path style="opacity:0.1;enable-background:new    ;" d="M43.418,407.811h70.279c4.939,0,9.645-0.998,13.928-2.802
	c-79.712-26.14-81.791-120.564-77.158-165.158c-13.635,2.248-24.926,12.372-28.4,26.116l-7.304,28.895
	C9.939,313.943,7.5,333.549,7.5,353.231v18.663C7.5,391.73,23.581,407.811,43.418,407.811z"/>
<path style="opacity:0.1;enable-background:new    ;" d="M231.436,194.127h-47.86c-4.143,0-7.5-3.358-7.5-7.5s3.357-7.5,7.5-7.5
	h47.86c4.143,0,7.5,3.358,7.5,7.5S235.579,194.127,231.436,194.127z"/>
<path d="M43.224,278.414l-5.451,21.563c-4.452,17.614-6.71,35.758-6.71,53.929v12.566c0,9.802,7.975,17.777,17.777,17.777h56.017
	c11.688,0,21.196-9.508,21.196-21.196v-2.945c0-4.142-3.357-7.5-7.5-7.5c-4.142,0-7.5,3.358-7.5,7.5v2.945
	c0,3.417-2.779,6.196-6.196,6.196H48.84c-1.531,0-2.777-1.246-2.777-2.777v-12.566c0-16.932,2.104-33.839,6.253-50.252l5.451-21.563
	c0.617-2.443,2.81-4.15,5.33-4.15h53.525c1.632,0,2.596,0.929,3.024,1.483c0.43,0.554,1.089,1.719,0.681,3.3l-3.147,12.211
	c-2.548,9.883-4.324,20.048-5.279,30.213c-0.388,4.124,2.642,7.781,6.766,8.169c4.108,0.384,7.781-2.641,8.168-6.766
	c0.882-9.378,2.521-18.755,4.871-27.872l3.147-12.211c1.464-5.679,0.244-11.596-3.349-16.232s-9.017-7.295-14.882-7.295H63.097
	C53.698,262.94,45.526,269.304,43.224,278.414z M250.785,150.389h-86.558c-9.364,0-16.983,7.619-16.983,16.983v38.509
	c0,9.364,7.619,16.983,16.983,16.983h86.558c9.364,0,16.983-7.619,16.983-16.983v-38.509
	C267.769,158.008,260.149,150.389,250.785,150.389z M252.769,205.882c0,1.093-0.89,1.983-1.983,1.983h-86.558
	c-1.094,0-1.983-0.89-1.983-1.983v-38.509c0-1.093,0.89-1.983,1.983-1.983h86.558c1.094,0,1.983,0.89,1.983,1.983V205.882z
	 M491.906,127.779v-13.966c0-5.184-2.31-10.031-6.335-13.297c-4.026-3.267-9.243-4.525-14.319-3.458l-16.089,3.391
	c-17.61,3.711-33.309,13.323-44.61,27.218H294.708c-4.989-8.486-14.211-14.199-24.747-14.199H164.817
	c-24.693,0-46.394,13.008-58.647,32.522l-23.925,16.692c-26.104,18.212-43.739,45.294-49.851,76.445
	c-8.523,5.723-14.941,14.481-17.6,25.002L7.49,293.024C2.52,312.69,0,332.947,0,353.231v18.662
	c0,23.941,19.478,43.419,43.418,43.419h70.279c23.94,0,43.418-19.478,43.418-43.419v-22.749h44.812
	c28.345,0,52.285-21.22,55.687-49.359l2.956-24.447h9.391c15.821,0,28.692-12.872,28.692-28.692v-13.14h141.778
	c4.143,0,7.5-3.358,7.5-7.5s-3.357-7.5-7.5-7.5H298.653v-75.839h115.559c0.002,0,0.004,0,0.006,0c0.003,0,0.006,0,0.008,0h75.446
	c4.04,0,7.327,3.287,7.327,7.327v61.185c0,4.04-3.287,7.327-7.327,7.327H475.97c-4.143,0-7.5,3.358-7.5,7.5s3.357,7.5,7.5,7.5
	h13.702c12.311,0,22.327-10.016,22.327-22.327v-61.185C512,138.437,503.173,128.903,491.906,127.779z M90.828,174.984l5.792-4.041
	c-0.655,3.818-1.016,7.736-1.016,11.738v23.444c0,9.1,1.783,17.786,4.989,25.752h-44.38c-2.293,0-4.549,0.189-6.757,0.54
	C56.265,209.157,70.664,189.052,90.828,174.984z M147.257,302.697c-3.247,12.593-4.951,25.554-5.11,38.556
	c-0.007,0.13-0.02,0.259-0.02,0.39c0,0.069,0.008,0.136,0.01,0.204c-0.004,0.465-0.022,0.928-0.022,1.393v28.652
	c0,15.67-12.748,28.419-28.418,28.419H43.418c-15.67,0-28.418-12.749-28.418-28.419V353.23c0-19.046,2.366-38.065,7.034-56.531
	l7.304-28.895c3.113-12.322,14.165-20.927,26.875-20.927h52.71c10.676,14.604,26.919,24.889,45.586,27.689L147.257,302.697z
	 M242.724,297.984c-2.493,20.614-20.032,36.16-40.797,36.16H157.4c0.578-9.346,2.044-18.629,4.382-27.702l8.018-31.104h12.355v2.497
	c0,11.111,5.538,21.397,14.813,27.514l11.229,7.407c1.272,0.839,2.705,1.24,4.123,1.24c2.436,0,4.826-1.185,6.268-3.371
	c2.28-3.458,1.326-8.109-2.131-10.39l-11.23-7.407c-5.054-3.333-8.071-8.939-8.071-14.993v-2.497h48.307L242.724,297.984z
	 M283.653,246.646c0,7.55-6.143,13.692-13.692,13.692H164.817c-0.149,0-0.295-0.01-0.444-0.011c-0.015-0.001-0.03,0-0.045-0.001
	c-29.668-0.265-53.724-24.471-53.724-54.2v-23.444c0-29.893,24.319-54.213,54.213-54.213h105.144c7.55,0,13.692,6.143,13.692,13.692
	L283.653,246.646L283.653,246.646z M476.906,127.667h-45.173c7.677-6.15,16.732-10.477,26.523-12.541l16.088-3.391
	c0.869-0.181,1.483,0.191,1.776,0.429s0.785,0.769,0.785,1.649L476.906,127.667L476.906,127.667z"/>
<g>
</g>
<g>
</g>
<g>
</g>
<g>
</g>
<g>
</g>
<g>
</g>
<g>
</g>
<g>
</g>
<g>
</g>
<g>
</g>
<g>
</g>
<g>
</g>
<g>
</g>
<g>
</g>
<g>
</g>
</svg>
