<svg height="512" viewBox="0 0 64 64" width="512" xmlns="http://www.w3.org/2000/svg"><g id="Filled_outline" data-name="Filled outline"><path d="m20 26h38l1 4h-5l4 20h-15l-4-20h-18z" fill="#7d8d9c"/><path d="m58 26h-25v-8h23z" fill="#5a6470"/><path d="m46 14h6v4h-6z" fill="#7d8d9c"/><path d="m42.2 46 .8 4h15l-.8-4z" fill="#5a6470"/><path d="m43 30 3 12h7l-3-12z" fill="#394d5c"/><path d="m21 30h-16v-4h15z" fill="#5a6470"/><path d="m56.8 21.2 1.2-1.2a2.006 2.006 0 0 1 3 0 1.583 1.583 0 0 1 0 2l-3 4z" fill="#7d8d9c"/><path d="m35 30s1 4-1 7c0 0 4 0 5.813-2.933l-.813-4.067z" fill="#5a6470"/><path d="m30 18-2 4h-8l-2-4h-13l-2 4v4h30v-8z" fill="#394d5c"/><path d="m18 18 2 4h8l2-4z" fill="#7d8d9c"/><path d="m50 29h-7a1 1 0 0 0 -.97 1.242l3 12a1 1 0 0 0 .97.758h7a1 1 0 0 0 .97-1.242l-3-12a1 1 0 0 0 -.97-.758zm-3.219 12-2.5-10h4.938l2.5 10z"/><path d="m59.935 18.341a3.347 3.347 0 0 0 -2.591.912l-.374-1.5a1 1 0 0 0 -.97-.753h-3v-3a1 1 0 0 0 -1-1h-6a1 1 0 0 0 -1 1v3h-40a1 1 0 0 0 -.895.553l-2 4a1 1 0 0 0 -.105.447v4a1 1 0 0 0 1 1h1v3a1 1 0 0 0 1 1h24.82l-.8 4.821a5.5 5.5 0 0 0 1.3 4.649 4.514 4.514 0 0 0 3.419 1.537c.133 0 .268 0 .4-.016l6.078-.825 1.803 9.034a1 1 0 0 0 .98.8h15a1 1 0 0 0 .98-1.2l-3.76-18.8h3.78a1 1 0 0 0 .97-1.242l-.885-3.539 2.7-3.594a2.562 2.562 0 0 0 .051-3.18 2.524 2.524 0 0 0 -1.901-1.104zm-12.935-3.341h4v2h-4zm-13 4h21.219l1.5 6h-22.719zm-5.618 0-1 2h-6.764l-1-2zm-22.382 10v-2h13.219l.5 2zm10-4v-1.764l.895-1.789-1.79-.894-1 2a1 1 0 0 0 -.105.447v2h-2v-1.764l.895-1.789-1.79-.894-1 2a1 1 0 0 0 -.105.447v2h-2v-1.764l.9-1.789-1.79-.894-1 2a1 1 0 0 0 -.11.447v2h-2v-2.764l1.618-3.236h11.764l1.723 3.447a1 1 0 0 0 .895.553h8a1 1 0 0 0 .895-.553l1.723-3.447h1.382v6zm17.921 15a2.542 2.542 0 0 1 -2.126-.874 3.545 3.545 0 0 1 -.809-2.965l.861-5.161h2.314a8.2 8.2 0 0 1 -.993 5.445 1 1 0 0 0 .832 1.555 9.2 9.2 0 0 0 5.222-1.791l.6 2.991zm2.255-9h2l.57 2.852a5.491 5.491 0 0 1 -3.025 1.881 11.158 11.158 0 0 0 .455-4.733zm20.6 18h-12.956l-.4-2h12.96zm-2.776-20a1 1 0 0 0 -.98 1.2l2.96 14.8h-12.96l-3.04-15.2a1 1 0 0 0 -.98-.8h-17.219l-.5-2h35.938l.5 2zm6.2-7.6-1.739 2.32-.554-2.213.8-.8a1.323 1.323 0 0 1 1.03-.376.552.552 0 0 1 .431.224c.321.482.159.686.032.845z"/><path d="m36 21h2v2h-2z"/><path d="m40 21h2v2h-2z"/><path d="m52 21h2v2h-2z"/></g></svg>