<svg id="Capa_1" enable-background="new 0 0 512.002 512.002" height="512" viewBox="0 0 512.002 512.002" width="512" xmlns="http://www.w3.org/2000/svg"><g><g><g><path d="m352.044 351.452-16.119 108.392c-.693 4.659 1.943 9.174 6.34 10.863l85.314 32.751c6.054 2.324 12.692-1.608 13.563-8.034l18.213-134.325c.715-5.273 3.71-9.966 8.191-12.836l15.214-9.742-295.703-113.486-1.865 35.582c-.196 3.734 2.035 7.169 5.526 8.509l145.971 56.019c10.65 4.088 17.033 15.023 15.355 26.307z" fill="#b5dbfd"/><path d="m430.68 365.019c-5.608 39.106-17.293 124.047-18.461 132.541l15.36 5.896c6.054 2.324 12.692-1.608 13.563-8.033l18.216-134.328c.711-5.274 3.705-9.967 8.187-12.831 0 0 15.213-9.747 15.213-9.747l-295.701-113.482-1.328 25.339 229.302 88.001c10.794 4.143 17.29 15.199 15.649 26.644z" fill="#8dcafc"/><g><path d="m417.461 458.067 12.31-90.789c.538-3.967-1.723-7.783-5.46-9.217l-25.501-9.787c-4.655-1.786-9.766 1.197-10.5 6.129l-13.689 92.055c-.537 3.612 1.506 7.113 4.915 8.421l26.28 10.086c5.198 1.995 10.897-1.381 11.645-6.898z" fill="#e89a5e"/><path d="m405.815 464.962-23.197-8.903c5.197 1.995 10.902-1.381 11.648-6.891l12.309-90.796c.533-3.965-1.728-7.781-5.459-9.213l23.197 8.903c3.731 1.432 5.991 5.248 5.459 9.213l-12.309 90.796c-.747 5.51-6.451 8.886-11.648 6.891z" fill="#d68a5a"/></g><path d="m178.399 195.98-31.039-11.913c-4.45-1.708-6.673-6.7-4.965-11.15l9.457-24.64c1.708-4.45 6.7-6.673 11.15-4.965l31.039 11.913z" fill="#b5dbfd"/><path d="m490.146 334.61 14.157-65.527c.895-4.158-1.369-8.349-5.35-9.876l-306.386-117.582c-4.451-1.716-9.441.508-11.148 4.957l-23.735 61.855c-1.707 4.449.518 9.439 4.966 11.146l315.976 121.262c4.941 1.902 10.406-1.057 11.52-6.235z" fill="#31a7fb"/><path d="m478.619 340.848-30.626-11.754c4.947 1.899 10.418-1.058 11.534-6.232l14.149-65.528c.894-4.159-1.369-8.355-5.35-9.883l30.634 11.757c3.972 1.525 6.235 5.721 5.342 9.88l-14.149 65.528c-1.116 5.173-6.587 8.13-11.534 6.232z" fill="#1c96f9"/><path d="m504.307 269.08-7.35 34.02-107.881-40.854c-3.887-1.472-6.458-5.195-6.458-9.352v-38.334l116.339 44.65c3.98 1.52 6.24 5.71 5.35 9.87z" fill="#e89a5e"/><path d="m504.297 269.09-7.34 34.01-30.66-11.61 7.38-34.16c.89-4.16-1.37-8.35-5.35-9.88l30.63 11.76c3.98 1.52 6.24 5.72 5.34 9.88z" fill="#d68a5a"/></g><g><g><g><g><path d="m116.953 65.505c-17.851-8.033-31.985.303-39.609 7.006-3.549 3.12-8.892 3.12-12.441 0-7.624-6.703-21.758-15.039-39.609-7.006-32.233 14.505-21.948 68.379 41.296 98.15 2.867 1.35 6.198 1.35 9.065 0 63.245-29.771 73.531-83.645 41.298-98.15z" fill="#fc95bb"/></g></g></g><g><g><g><path d="m75.661 163.653c-2.875 1.347-6.202 1.347-9.067 0-4.061-1.91-7.911-3.93-11.539-6.031 55.556-29.582 64.824-78.263 36.428-93.562 7.076-2.443 15.721-2.935 25.471 1.447 32.235 14.505 21.942 68.373-41.293 98.146z" fill="#fc78a8"/></g></g></g></g><g><g><g><g><path d="m217.34 9.996c-11.717-5.273-20.994.199-25.999 4.599-2.33 2.048-5.836 2.048-8.166 0-5.004-4.4-14.281-9.872-25.999-4.599-21.157 9.521-14.406 44.883 27.106 64.424 1.882.886 4.068.886 5.95 0 41.514-19.541 48.265-54.903 27.108-64.424z" fill="#fc95bb"/></g></g></g><g><g><g><path d="m190.236 74.419c-1.89.885-4.071.885-5.951 0-4.714-2.221-8.986-4.644-12.816-7.217 29.572-17.701 36.367-43.816 24.114-55.747 5.287-3.247 12.806-5.488 21.752-1.458 21.16 9.519 14.415 44.881-27.099 64.422z" fill="#fc78a8"/></g></g></g></g></g><g><path d="m426.998 351.059-25.501-9.787c-4.354-1.671-9.162-1.281-13.188 1.07-4.028 2.351-6.731 6.345-7.417 10.957l-13.689 92.055c-1.062 7.143 2.905 13.938 9.646 16.526l26.281 10.087c1.883.723 3.843 1.08 5.794 1.08 2.848 0 5.675-.762 8.207-2.262 4.267-2.528 7.096-6.797 7.762-11.711l5.682-41.905c.553-4.077-2.283-7.839-6.354-8.43-.107-.016-.215-.029-.326-.041-3.986-.506-7.693 2.245-8.339 6.247-.102.628-.122 1.251-.068 1.857l-5.458 40.256c-.049.36-.231.636-.544.821-.312.185-.643.214-.981.083l-26.28-10.087c-.129-.05-.205-.18-.185-.315l13.689-92.055c.008-.056.021-.139.142-.21.122-.07.2-.041.252-.021l25.501 9.787c.492.188.786.686.715 1.207l-1.83 13.497c-.557 4.104 2.32 7.883 6.424 8.439 4.109.562 7.883-2.32 8.44-6.424l1.83-13.498c1.009-7.445-3.187-14.529-10.205-17.223z"/><path d="m501.643 252.205-169.088-64.893c-3.866-1.482-8.205.447-9.689 4.314s.448 8.205 4.314 9.689l47.937 18.397v33.181c0 7.229 4.542 13.806 11.302 16.365l101.842 38.568-5.442 25.203c-.073.337-.264.592-.567.756-.208.111-.542.215-.943.062l-315.976-121.266c-.582-.224-.874-.879-.651-1.46l23.737-61.849c.138-.36.4-.54.595-.627.195-.086.504-.16.865-.022l104.005 39.915c3.869 1.482 8.205-.448 9.689-4.314 1.484-3.867-.448-8.205-4.315-9.689l-104.004-39.915c-4.021-1.544-8.405-1.429-12.341.323-2.699 1.202-4.951 3.087-6.607 5.443l-10.617-4.075c-4.023-1.545-8.406-1.431-12.342.323-3.936 1.753-6.954 4.934-8.498 8.956l-9.457 24.641c-3.186 8.304.977 17.652 9.281 20.839l10.144 3.893-4.139 10.784c-3.187 8.304.976 17.652 9.28 20.839l19.122 7.339-1.379 26.301c-.367 7.001 3.784 13.393 10.329 15.904l87.663 33.642-6.591 17.174c-2.386 6.218-2.208 12.992.5 19.076 2.709 6.083 7.625 10.748 13.842 13.134l56.638 21.737-11.577 77.848c-1.219 8.199 3.333 15.999 11.07 18.968l85.314 32.751c2.049.786 4.184 1.176 6.307 1.176 3.098 0 6.173-.828 8.928-2.46 4.644-2.751 7.723-7.396 8.448-12.743l18.212-134.325c.42-3.098 2.171-5.842 4.804-7.527l8.698-5.569c.069-.044.131-.096.199-.142.409.031.819.056 1.229.056 2.649 0 5.288-.653 7.675-1.945 4.147-2.244 7.096-6.174 8.091-10.782l14.148-65.528c1.693-7.831-2.508-15.596-9.985-18.466zm-351.595-75.14c-.583-.224-.874-.879-.651-1.461l9.457-24.64c.139-.361.4-.541.596-.628.194-.087.502-.162.865-.022l10.145 3.894-10.267 26.75zm241.683 78.167c-.965-.366-1.614-1.306-1.614-2.338v-27.424l106.15 40.739c.524.201.819.746.701 1.294l-5.505 25.498zm-102.91 89.919c-2.477-.95-4.435-2.809-5.514-5.232s-1.15-5.122-.199-7.599l6.591-17.175 24.169 9.275c-1.235 2.755-3.26 5.989-6.556 8.727-3.186 2.646-3.623 7.375-.976 10.562 1.483 1.785 3.62 2.707 5.772 2.707 1.689 0 3.388-.567 4.789-1.731 5.689-4.727 9.029-10.303 10.978-14.888l6.125 2.351c7.425 2.85 11.794 10.335 10.625 18.201l-2.282 15.344zm163.102 14.94-18.212 134.325c-.144 1.064-.831 1.617-1.228 1.853s-1.21.574-2.215.187l-85.315-32.751c-1.124-.432-1.786-1.565-1.608-2.757l16.119-108.393c2.211-14.872-6.048-29.023-20.087-34.411l-145.97-56.019c-.459-.176-.75-.624-.724-1.115l1.123-21.435 268.631 103.097c-5.751 4.1-9.559 10.379-10.514 17.419z"/><path d="m140.713 82.354c-2.989-10.619-10.334-19.032-20.683-23.689-22.042-9.917-39.308.889-47.639 8.214-.723.637-1.814.637-2.536 0-8.331-7.323-25.597-18.132-47.639-8.214-13.982 6.293-22.079 18.96-22.214 34.753-.245 28.546 24.64 58.779 63.395 77.023 2.456 1.155 5.091 1.733 7.727 1.733s5.272-.578 7.728-1.734c8.599-4.048 16.6-8.698 23.782-13.821 3.372-2.405 4.156-7.089 1.75-10.461-2.405-3.373-7.088-4.157-10.461-1.75-6.452 4.602-13.673 8.795-21.46 12.461-.851.4-1.826.4-2.677 0-38.066-17.919-54.944-44.715-54.785-63.322.084-9.83 4.833-17.36 13.371-21.202 13.66-6.149 24.712-.238 31.58 5.8 6.369 5.601 15.975 5.599 22.344 0 6.867-6.038 17.922-11.946 31.579-5.8 6.32 2.844 10.608 7.711 12.399 14.073 2.766 9.826-.401 22.422-8.689 34.559-2.336 3.421-1.457 8.087 1.964 10.423s8.087 1.457 10.423-1.964c10.797-15.812 14.712-32.972 10.741-47.082z"/><path d="m181.087 81.205c1.961.924 4.067 1.386 6.172 1.386 2.104 0 4.209-.462 6.168-1.385 26.345-12.401 43.259-33.17 43.091-52.909-.097-11.416-5.966-20.579-16.101-25.14 0-.001 0-.001 0-.001-11.2-5.038-23.225-3.186-33.159 5.063-9.935-8.25-21.959-10.104-33.16-5.063-10.135 4.561-16.003 13.724-16.101 25.14-.167 19.74 16.747 40.508 43.09 52.909zm-20.832-64.369c2.2-.99 4.382-1.484 6.538-1.484 3.911 0 7.737 1.628 11.43 4.875 5.151 4.53 12.92 4.53 18.071.001 5.73-5.038 11.775-6.18 17.969-3.392v-.001c5.939 2.674 7.225 7.778 7.257 11.59.097 11.356-10.462 27.832-34.261 39.105-23.799-11.272-34.358-27.748-34.261-39.105.032-3.812 1.318-8.917 7.257-11.589z"/><path d="m196.302 102.491-2.788 10.252c-1.087 3.996 1.272 8.118 5.269 9.205.659.179 1.321.265 1.973.265 3.301 0 6.325-2.195 7.233-5.534l2.788-10.252c1.087-3.996-1.272-8.118-5.269-9.205-3.998-1.084-8.119 1.272-9.206 5.269z"/><path d="m168.942 94.644c-3.984 1.133-6.295 5.281-5.162 9.266l2.939 10.333c.938 3.299 3.942 5.45 7.21 5.45.679 0 1.37-.093 2.056-.288 3.984-1.133 6.295-5.281 5.162-9.266l-2.939-10.333c-1.133-3.984-5.281-6.295-9.266-5.162z"/><path d="m227.741 113.263-7.768 7.424c-2.994 2.862-3.102 7.609-.24 10.604 1.473 1.542 3.446 2.318 5.423 2.318 1.863 0 3.728-.689 5.181-2.078l7.768-7.424c2.994-2.862 3.102-7.609.24-10.604s-7.609-3.103-10.604-.24z"/><path d="m184.803 196.855c-1.506 3.858.401 8.207 4.26 9.713l147.536 57.58c.896.35 1.818.516 2.725.516 3 0 5.833-1.813 6.989-4.775 1.506-3.858-.401-8.207-4.26-9.713l-147.536-57.58c-3.858-1.506-8.208.401-9.714 4.259z"/></g></g></svg>