<?xml version="1.0" encoding="iso-8859-1"?>
<!-- Generator: Adobe Illustrator 19.0.0, SVG Export Plug-In . SVG Version: 6.00 Build 0)  -->
<svg version="1.1" id="Layer_1" xmlns="http://www.w3.org/2000/svg" xmlns:xlink="http://www.w3.org/1999/xlink" x="0px" y="0px"
	 viewBox="0 0 512 512" style="enable-background:new 0 0 512 512;" xml:space="preserve">
<g>
	<path style="fill:#E4F5F4;" d="M401.157,143.856c8.722,8.722,8.722,22.867,0,31.589l-2.419,2.406
		c-8.71,8.722-22.855,8.722-31.577,0l-39.7-39.713c-8.722-8.722-8.722-22.855,0-31.577l2.406-2.406
		c8.722-8.722,22.855-8.722,31.577,0L401.157,143.856z"/>
	<polygon style="fill:#E4F5F4;" points="15.766,468.235 15.766,413.351 181.787,247.33 261.774,327.317 217.175,371.928 
		178.672,371.928 178.672,410.419 154.485,410.419 154.485,434.606 112.403,434.606 112.403,476.737 88.045,501.059 15.766,501.059 
		15.766,468.248 	"/>
</g>
<path style="fill:#F27258;" d="M179.848,245.391l-7.085-7.085c-31.956-31.956-31.956-83.75,0-115.705l87.133-87.133
	c31.956-31.944,83.75-31.944,115.705,0l94.23,94.243c31.956,31.944,31.956,83.75,0,115.705l-87.121,87.133
	c-31.956,31.944-83.762,31.944-115.705,0l-7.171-7.171L179.848,245.391z M401.157,175.445c8.722-8.722,8.722-22.867,0-31.589
	l-39.713-39.7c-8.722-8.722-22.855-8.722-31.577,0l-2.406,2.406c-8.722,8.722-8.722,22.855,0,31.577l39.7,39.713
	c8.722,8.722,22.867,8.722,31.577,0L401.157,175.445z"/>
<g>
	<path style="fill:#201F2E;" d="M480.663,121.733l-94.237-94.237c-36.665-36.661-96.319-36.661-132.981,0l-87.131,87.132
		c-17.76,17.76-27.541,41.374-27.541,66.491c0,24.377,9.239,47.324,26.019,64.893L7.375,403.441
		c-2.284,2.284-3.579,5.399-3.579,8.636v87.707c0,6.743,5.473,12.216,12.216,12.216h72.279c3.237,0,6.34-1.295,8.636-3.579
		l24.358-24.321c2.297-2.284,3.579-5.399,3.579-8.636v-29.916h29.867c6.755,0,12.216-5.46,12.216-12.216v-11.971h11.971
		c6.755,0,12.216-5.46,12.216-12.216V382.87h26.288c3.237,0,6.352-1.295,8.636-3.579l36.005-36.005
		c17.579,16.833,40.56,26.101,64.978,26.101c25.118,0,48.73-9.781,66.49-27.54l87.132-87.132
		c17.76-17.76,27.541-41.374,27.541-66.492C508.204,163.106,498.424,139.493,480.663,121.733z M212.365,358.439h-33.446
		c-6.743,0-12.216,5.46-12.216,12.216v26.276h-11.971c-6.743,0-12.216,5.473-12.216,12.216v11.971H112.65
		c-6.743,0-12.216,5.473-12.216,12.216v37.062l-17.199,17.175H28.228v-17.263l149.31-149.309c4.294-4.294,4.294-11.255,0-15.549
		c-4.293-4.293-11.254-4.293-15.548,0L28.227,439.209v-22.076l153.801-153.812l62.722,62.722L212.365,358.439z M463.388,237.438
		l-87.132,87.132c-27.137,27.137-71.291,27.137-98.428,0l-94.238-94.238c-27.137-27.137-27.137-71.292,0-98.429l87.131-87.132
		c13.569-13.569,31.389-20.352,49.215-20.352c17.821,0,35.647,6.786,49.214,20.352l94.238,94.238
		C490.526,166.146,490.526,210.301,463.388,237.438z"/>
	<path style="fill:#201F2E;" d="M371.41,97.045c-6.293-6.295-14.662-9.761-23.565-9.761c-8.901,0-17.27,3.467-23.564,9.76
		l-2.41,2.41c-12.994,12.994-12.994,34.135,0,47.129l39.705,39.705h0.001c6.496,6.495,15.029,9.744,23.563,9.744
		s17.07-3.249,23.567-9.747l2.406-2.408c6.295-6.293,9.761-14.662,9.761-23.564c0-8.903-3.467-17.272-9.76-23.565L371.41,97.045z
		 M395.565,168.332l-2.406,2.408c-4.421,4.421-11.613,4.421-16.034,0l-39.705-39.705c-4.421-4.42-4.421-11.612,0-16.032l2.41-2.411
		c2.141-2.141,4.988-3.32,8.016-3.32s5.876,1.179,8.017,3.321l39.707,39.705c2.141,2.141,3.32,4.988,3.32,8.017
		C398.887,163.342,397.709,166.188,395.565,168.332z"/>
</g>
<g>
</g>
<g>
</g>
<g>
</g>
<g>
</g>
<g>
</g>
<g>
</g>
<g>
</g>
<g>
</g>
<g>
</g>
<g>
</g>
<g>
</g>
<g>
</g>
<g>
</g>
<g>
</g>
<g>
</g>
</svg>
