<svg id="Capa_1" enable-background="new 0 0 512 512" height="512" viewBox="0 0 512 512" width="512" xmlns="http://www.w3.org/2000/svg"><g><g><path d="m482 90h-226-226l-30 30v346c0 24.814 20.186 46 45 46h211 211c24.814 0 45-21.186 45-46v-346z" fill="#f0f7ff"/><path d="m512 466v-346l-30-30h-226v422h211c24.814 0 45-21.186 45-46z" fill="#dfe7f4"/><path d="m467 0h-211-211c-24.814 0-45 20.186-45 45v75h256 256v-75c0-24.814-20.186-45-45-45z" fill="#575f64"/><path d="m512 45c0-24.814-20.186-45-45-45h-211v120h256z" fill="#474f54"/><circle cx="91" cy="60" fill="#ffea00" r="15"/><circle cx="151" cy="60" fill="#97de3d" r="15"/><circle cx="211" cy="60" fill="#fe8205" r="15"/></g><path d="m166 211c-24.901 0-45 20.099-45 45 0 24.899 20.099 45 45 45s45-20.101 45-45c0-24.901-20.099-45-45-45z" fill="#3aaaff"/><path d="m406 241h-120c-8.291 0-15-6.709-15-15s6.709-15 15-15h120c8.291 0 15 6.709 15 15s-6.709 15-15 15z" fill="#c7cfe1"/><path d="m406 391h-120c-8.291 0-15-6.709-15-15s6.709-15 15-15h120c8.291 0 15 6.709 15 15s-6.709 15-15 15z" fill="#c7cfe1"/><path d="m421 436c0 8.399-6.599 15-15 15h-300c-8.401 0-15-6.601-15-15 0-8.401 6.599-15 15-15h300c8.401 0 15 6.599 15 15z" fill="#dfe7f4"/><path d="m166 301c-41.4 0-75 33.6-75 75 0 8.399 6.599 15 15 15h120c8.401 0 15-6.601 15-15 0-41.4-33.6-75-75-75z" fill="#3aaaff"/><g fill="#474f54"><circle cx="286" cy="286" r="15"/><circle cx="346" cy="286" r="15"/><circle cx="406" cy="286" r="15"/></g><path d="m166 301v-90c24.901 0 45 20.099 45 45 0 24.899-20.099 45-45 45z" fill="#6b77e8"/><path d="m241 376c0 8.399-6.599 15-15 15h-60v-90c41.4 0 75 33.6 75 75z" fill="#6b77e8"/><path d="m421 436c0 8.399-6.599 15-15 15h-150v-30h150c8.401 0 15 6.599 15 15z" fill="#c7cfe1"/></g></svg>