<svg height="512" viewBox="0 0 44 60" width="512" xmlns="http://www.w3.org/2000/svg"><g id="Page-1" fill="none" fill-rule="evenodd"><g id="012---Rules" fill-rule="nonzero"><g id="Icons" transform="translate(1 1)"><path id="Shape" d="m40 46v8h-36c-2.209139 0-4-1.790861-4-4s1.790861-4 4-4z" fill="#ffe0b2"/><path id="Rectangle-path" d="m37 46h3v8h-3z" fill="#dfc49c"/><path id="Shape" d="m42 1v44c0 .5522847-.4477153 1-1 1h-37c-1.06127285-.0013291-2.07946091.4196715-2.82989472 1.1701053-.75043382.7504338-1.17143436 1.7686219-1.17010842 2.8298947l.00000314-46c0-2.209139 1.790861-4 4-4h37c.5522847 0 1 .44771525 1 1z" fill="#f44335"/><path id="Shape" d="m41 0h-3c.5522847 0 1 .44771525 1 1v44c0 .5522847-.4477153 1-1 1h3c.5522847 0 1-.4477153 1-1v-44c0-.55228475-.4477153-1-1-1z" fill="#c81e1e"/><path id="Shape" d="m8 50v8l3.553-1.776c.2814108-.1406214.6125892-.1406214.894 0l3.553 1.776v-8z" fill="#ffdc00"/><path id="Shape" d="m16 9h14c.5522847 0 1 .44771525 1 1v10c0 2.7614237-2.2385763 5-5 5h-6c-2.7614237 0-5-2.2385763-5-5v-10c0-.55228475.4477153-1 1-1z" fill="#ffdc00"/><path id="Shape" d="m30 9h-3c.5522847 0 1 .44771525 1 1v10c0 2.7614237-2.2385763 5-5 5h3c2.7614237 0 5-2.2385763 5-5v-10c0-.55228475-.4477153-1-1-1z" fill="#fec108"/><path id="Rectangle-path" d="m21 25h4v8h-4z" fill="#ff9801"/><path id="Shape" d="m19 33h8c.5522847 0 1 .4477153 1 1v3h-10v-3c0-.5522847.4477153-1 1-1z" fill="#ffdc00"/><path id="Shape" d="m27 33h-3c.5522847 0 1 .4477153 1 1v3h3v-3c0-.5522847-.4477153-1-1-1z" fill="#fec108"/></g><g id="Icons_copy" fill="#000"><path id="Shape" d="m44 46v-44c0-1.1045695-.8954305-2-2-2h-37c-2.76005315.00330612-4.99669388 2.23994685-5 5v46c.00330612 2.7600532 2.23994685 4.9966939 5 5h3v3c-.00190212.3475069.17674355.6710847.47183356.8546237.29509001.1835391.66430762.2007194.97516644.0453763l3.553-1.782 3.553 1.782c.3108588.1553431.6800764.1381628.9751664-.0453763.2950901-.183539.4737357-.5071168.4718336-.8546237v-3h25c.5522847 0 1-.4477153 1-1s-.4477153-1-1-1h-1v-6c1.1045695 0 2-.8954305 2-2zm-42-41c0-1.65685425 1.34314575-3 3-3h37v44h-37c-1.08200345-.0009403-2.13496143.3500457-3 1zm14 52.382-2.106-1.053c-.5637173-.2789267-1.2252827-.2789267-1.789 0l-2.105 1.053v-5.382h6zm24-3.382h-22v-2h4c.5522847 0 1-.4477153 1-1s-.4477153-1-1-1h-16c-.55228475 0-1 .4477153-1 1s.44771525 1 1 1h2v2h-3c-1.65685425 0-3-1.3431458-3-3s1.34314575-3 3-3h35z"/><path id="Shape" d="m27 52h2c.5522847 0 1-.4477153 1-1s-.4477153-1-1-1h-2c-.5522847 0-1 .4477153-1 1s.4477153 1 1 1z"/><path id="Shape" d="m6 43v-38c0-.55228475-.44771525-1-1-1s-1 .44771525-1 1v38c0 .5522847.44771525 1 1 1s1-.4477153 1-1z"/><path id="Shape" d="m15.717 23.841c1.046537 1.9439614 3.0752361 3.1570336 5.283 3.159v6h-1c-1.1045695 0-2 .8954305-2 2v3c0 .5522847.4477153 1 1 1h10c.5522847 0 1-.4477153 1-1v-3c0-1.1045695-.8954305-2-2-2h-1v-6c2.2077639-.0019664 4.236463-1.2150386 5.283-3.159 4.5-1 5.462-7.051 5.664-9.7.0403511-.5550759-.1524107-1.1018631-.5319456-1.5089143-.379535-.4070513-.9115157-.6375504-1.4680544-.6360857h-2.947v-.996c0-1.1045695-.8954305-2-2-2h-14c-1.1045695 0-2 .8954305-2 2v1h-2.952c-.5554828-.000053-1.0859655.2309171-1.4643662.6375793-.3784007.4066621-.5706286.9523795-.5306338 1.5064207.202 2.646 1.168 8.702 5.664 9.697zm20.236-9.849c-.145 1.895-.723 5.916-2.974 7.414.01-.135.021-.269.021-.406v-7zm-7.953 23.008h-8v-2h8zm-3-4h-2v-6h2zm-8-22h14v10c0 2.209139-1.790861 4-4 4h-6c-2.209139 0-4-1.790861-4-4zm-2 3v7c0 .137.011.271.021.406-2.251-1.5-2.829-5.518-2.973-7.406z"/></g></g></g></svg>